<svg width="237" height="200" viewBox="0 0 237 200" fill="none" xmlns="http://www.w3.org/2000/svg">
<g id="Symbols">
<g id="Bottom/Sitting/Baggy-Pants">
<path id="LegLower" fill-rule="evenodd" clip-rule="evenodd" d="M195.562 136.276C172.716 123.834 156.781 114.231 147.756 107.468C132.303 95.8873 119.22 85.3306 114.732 81.1057C104.027 71.0308 120.744 58.0986 127.355 62.1858C137.362 68.3719 162.261 90.3297 202.051 128.059L195.562 136.276Z" fill="#B28B67"/>
<path id="LegLower_2" fill-rule="evenodd" clip-rule="evenodd" d="M161.717 142.942L104.631 83.6569C93.3153 73.1933 119.661 53.5432 126.586 57.7852C142.31 67.416 188.229 111.499 192.913 114.368L161.717 142.942Z" fill="#2F3676"/>
<g id="Lower-Leg">
<path id="LegLower_3" fill-rule="evenodd" clip-rule="evenodd" d="M79.3656 157.859C81.7796 147.818 91.4321 113.458 98.0964 98.2311C100.012 93.8556 101.9 89.6368 103.704 85.6889C109.065 73.9544 132.215 81.5188 126.567 92.4961C112.501 119.834 91.1381 157.637 89.4115 160.94C86.9917 165.57 77.8485 164.169 79.3656 157.859Z" fill="#B28B67"/>
</g>
<g id="Accessories/Shoe/Flat-Sneaker">
<path id="shoe" fill-rule="evenodd" clip-rule="evenodd" d="M79.2343 153.785C77.9235 156.055 77.1739 157.788 76.9856 158.983C76.7566 160.437 76.6726 162.596 76.7335 165.459C78.4754 165.716 94.1304 168.028 123.698 172.394C125.534 168.668 125.162 166.455 122.582 165.755C120.001 165.055 117.861 164.451 116.161 163.944L95.8167 151.298C95.4252 151.054 94.9041 151.164 94.6528 151.543C94.6485 151.55 94.6443 151.556 94.6402 151.563L92.7179 154.651C90.1105 155.392 88.0459 155.649 86.524 155.425C85.2875 155.242 83.656 154.506 81.6296 153.217C80.852 152.723 79.8075 152.932 79.2967 153.685C79.2747 153.718 79.2539 153.751 79.2343 153.785Z" fill="#E4E4E4"/>
</g>
<g id="Accessories/Shoe/Flat-Sneaker_2">
<path id="shoe_2" fill-rule="evenodd" clip-rule="evenodd" d="M187.805 136.058C187.842 138.659 188.088 140.522 188.542 141.649C189.095 143.019 190.137 144.929 191.668 147.379C193.309 146.758 208.061 141.181 235.922 130.648C235.588 126.532 234.122 124.796 231.526 125.439C228.93 126.082 226.765 126.595 225.031 126.978L200.882 125.876C200.417 125.855 200.022 126.202 200 126.652C200 126.66 200 126.668 200 126.675L199.93 130.281C198.054 132.184 196.399 133.407 194.965 133.949C193.8 134.389 192.007 134.542 189.587 134.407C188.658 134.355 187.861 135.042 187.808 135.942C187.806 135.98 187.805 136.019 187.805 136.058Z" fill="#E4E4E4"/>
</g>
<path id="Leg-and-Butt" fill-rule="evenodd" clip-rule="evenodd" d="M95.685 91.0782C70.2343 96.3501 53.1659 99.8286 44.4796 101.514C19.7202 106.316 8.09809 96.8004 1.47256 68.9564L44.1528 52.8206C50.4377 52.2646 77.9761 53.1097 126.768 55.3561C135.693 56.123 138.573 67.2444 138.614 71.2515C138.616 71.415 134.445 97.0897 126.102 148.276L82.5033 139.94L96.7739 93.5911C96.9352 91.8325 96.5722 90.9949 95.685 91.0782Z" fill="#5C63AB"/>
</g>
</g>
</svg>
