<svg width="30" height="30" viewBox="0 0 30 30" fill="none" xmlns="http://www.w3.org/2000/svg">
<path id="Vector" d="M11.639 1.94997C9.38109 0.656421 6.22511 0.0227708 1.99984 0.000274395C1.60135 -0.00622176 1.21068 0.133205 0.87993 0.399961C0.608445 0.620148 0.386212 0.91701 0.232777 1.26444C0.0793422 1.61186 -0.000592676 1.9992 3.30838e-06 2.3924V23.8465C3.30838e-06 25.2968 0.859931 26.3909 1.99984 26.3909C6.44134 26.3909 10.8966 26.8888 13.5651 29.9153C13.6016 29.9569 13.6475 29.9847 13.6971 29.9953C13.7466 30.0058 13.7977 29.9987 13.8439 29.9747C13.8901 29.9507 13.9294 29.911 13.957 29.8604C13.9845 29.8099 13.9991 29.7507 13.9988 29.6903V4.41108C13.9989 4.24052 13.9685 4.07192 13.9097 3.91668C13.8508 3.76144 13.7648 3.62317 13.6576 3.51122C13.0464 2.88419 12.3674 2.35904 11.639 1.94997ZM29.1176 0.397712C28.7867 0.131619 28.396 -0.00702912 27.9977 0.000274395C23.7724 0.0227708 20.6164 0.653421 18.3585 1.94997C17.6302 2.35829 16.951 2.88242 16.3393 3.50822C16.2323 3.62037 16.1465 3.75869 16.0878 3.9139C16.029 4.06911 15.9986 4.23761 15.9987 4.40808V29.6888C15.9986 29.7469 16.0129 29.8036 16.0396 29.852C16.0664 29.9004 16.1045 29.9382 16.149 29.9607C16.1936 29.9832 16.2428 29.9894 16.2903 29.9785C16.3378 29.9676 16.3816 29.9402 16.4161 29.8995C18.0204 27.9874 20.8358 26.3886 28.0002 26.3894C28.5306 26.3894 29.0392 26.1365 29.4143 25.6865C29.7893 25.2365 30 24.6262 30 23.9897V2.39315C30.0007 1.99918 29.9206 1.61105 29.7667 1.26304C29.6128 0.915032 29.3899 0.617841 29.1176 0.397712Z" fill="#1C1C1C"/>
</svg>
