<svg width="187" height="230" viewBox="0 0 187 230" fill="none" xmlns="http://www.w3.org/2000/svg">
<g id="humaaans/sitting-8">
<g id="A-Human/Sitting">
<g id="Head/Front/Short-2">
<g id="Head">
<path id="Vector" fill-rule="evenodd" clip-rule="evenodd" d="M128.846 28.4858C131.774 24.7723 133.756 20.2214 133.425 15.122C132.471 0.429089 113.538 3.66133 109.856 11.077C106.173 18.4927 106.61 37.3033 111.37 38.6286C113.268 39.1572 117.312 37.8624 121.427 35.1827L118.844 54.9254H134.097L128.846 28.4858Z" fill="#915B3C"/>
</g>
<path id="Hair" fill-rule="evenodd" clip-rule="evenodd" d="M130.018 31.7932C131.932 22.5925 137.386 16.3207 136.553 12.2083C135.998 9.46678 134.518 7.7619 132.113 7.0937C130.87 1.6584 126.858 -0.653441 120.08 0.158169C109.912 1.37558 103.706 5.93727 106.386 15.975C108.85 15.975 111.824 15.0125 115.936 16.6615C117.241 17.1848 118.174 18.8074 118.736 21.5294H120.595C122.398 18.2991 124.177 17.1121 125.93 17.9683C127.683 18.8245 128.082 20.9042 127.125 24.2074L128.041 31.7932H130.018Z" fill="#191847"/>
</g>
<g id="Bottom/Sitting/Baggy-Pants">
<g id="Objects/Seat/Cube-2">
<path id="Seat" fill-rule="evenodd" clip-rule="evenodd" d="M176.677 140.746H103.591C97.9755 140.746 93.4229 145.664 93.4229 151.731V214.896C93.4229 220.962 97.9755 225.881 103.591 225.881H176.677C182.293 225.881 186.846 220.962 186.846 214.896V151.731C186.846 145.664 182.293 140.746 176.677 140.746ZM166.509 159.97C167.913 159.97 169.051 161.2 169.051 162.716V203.91C169.051 205.427 167.913 206.657 166.509 206.657H113.76C112.356 206.657 111.218 205.427 111.218 203.91V162.716C111.218 161.2 112.356 159.97 113.76 159.97H166.509Z" fill="#C5CFD6"/>
</g>
<path id="LegLower" fill-rule="evenodd" clip-rule="evenodd" d="M30.4044 222.448C42.9345 205.918 51.4126 193.664 55.8388 185.685C63.4175 172.023 69.6203 159.866 71.5778 155.222C76.2456 144.148 60.8317 138.963 57.3432 144.128C52.0632 151.946 40.787 176.546 23.5146 217.928L30.4044 222.448Z" fill="#B28B67"/>
<path id="LegLower_2" fill-rule="evenodd" clip-rule="evenodd" d="M56.0807 217.642L79.3998 154.228C84.3873 142.668 60.3018 135.07 56.6364 140.45C48.3147 152.663 28.536 200.844 26.0567 204.483L56.0807 217.642Z" fill="#2F3676"/>
<g id="Lower-Leg">
<path id="LegLower_3" fill-rule="evenodd" clip-rule="evenodd" d="M118.188 204.925C113.645 197.766 97.1227 173.684 88.1233 163.72C85.5372 160.856 83.0139 158.108 80.6273 155.547C73.5334 147.935 59.407 160.729 66.4878 167.663C84.1217 184.93 109.851 208.241 112 210.319C115.013 213.232 121.042 209.423 118.188 204.925Z" fill="#915B3C"/>
</g>
<g id="Accessories/Shoe/Flat-Sneaker">
<path id="shoe" fill-rule="evenodd" clip-rule="evenodd" d="M117.125 201.691C118.69 203.083 119.708 204.219 120.179 205.101C120.752 206.173 121.423 207.841 122.192 210.104C121.04 210.822 110.693 217.276 91.1489 229.466C88.8025 227.088 88.4369 225.242 90.0522 223.928C91.6674 222.615 93.0004 221.507 94.051 220.605L104.766 204.657C104.972 204.35 105.369 204.281 105.653 204.504C105.658 204.508 105.663 204.512 105.668 204.516L107.894 206.368C109.937 206.175 111.461 205.765 112.467 205.138C113.284 204.628 114.222 203.568 115.281 201.956C115.687 201.338 116.481 201.192 117.053 201.631C117.078 201.65 117.102 201.67 117.125 201.691Z" fill="#E4E4E4"/>
</g>
<g id="Accessories/Shoe/Flat-Sneaker_2">
<path id="shoe_2" fill-rule="evenodd" clip-rule="evenodd" d="M35.7943 219.977C36.5053 222.028 36.8608 223.562 36.8608 224.58C36.8608 225.818 36.6698 227.625 36.288 230C34.9585 230 23.0102 230 0.442951 230C-0.488537 226.673 0.0491714 224.877 2.05607 224.612C4.06297 224.347 5.73014 224.107 7.05757 223.893L23.718 215.87C24.0386 215.715 24.4143 215.871 24.5572 216.217C24.5597 216.223 24.5621 216.229 24.5643 216.235L25.6353 219.042C27.4931 219.978 29.0028 220.446 30.1644 220.446C31.1081 220.446 32.4114 220.034 34.0743 219.211C34.7124 218.895 35.4669 219.198 35.7594 219.887C35.772 219.917 35.7836 219.947 35.7943 219.977Z" fill="#E4E4E4"/>
</g>
<path id="Leg-and-Butt" fill-rule="evenodd" clip-rule="evenodd" d="M87.7908 157.396C107.172 153.984 120.155 151.652 126.737 150.398C145.5 146.824 150.971 135.916 147.736 112.118H113.166C108.591 113.545 89.476 122.372 55.8202 138.598C49.7649 141.846 50.8926 151.421 51.9994 154.575C52.0445 154.704 62.2527 173.601 82.6238 211.265L110.904 191.803L87.7377 159.689C87.1259 158.358 87.1436 157.593 87.7908 157.396Z" fill="#5C63AB"/>
</g>
<g id="Body/Hoodie">
<path id="Skin" fill-rule="evenodd" clip-rule="evenodd" d="M85.3001 103.13L65.0278 119.212C59.5295 120.815 54.9359 122.809 51.2469 125.195C50.3755 126.052 49.3223 127.79 52.9362 127.489C56.5502 127.189 60.364 127.049 60.8626 128.38C61.3613 129.712 59.1743 131.305 60.1823 133.101C60.8543 134.299 64.0291 131.296 69.7066 124.091L89.7815 115.098L85.3001 103.13ZM163.136 103.685L149.855 103.742C158.055 132.34 162.482 147.514 163.136 149.264C164.606 153.201 161.494 159.197 160.163 162.419C164.498 164.514 164.036 156.755 169.504 159.503C174.494 162.011 178.291 166.556 184.056 162.713C184.765 162.24 185.542 160.461 183.665 159.071C178.989 155.607 172.251 149.544 171.34 147.549C170.099 144.828 167.364 130.207 163.136 103.685Z" fill="#915B3C"/>
<path id="Coat-Back" fill-rule="evenodd" clip-rule="evenodd" d="M125.393 43.4817L119.898 42.4634C99.5078 61.4919 91.133 98.0479 66.1399 117.413L72.1556 125.469C115.514 119.669 126.261 75.0794 125.393 43.4817Z" fill="#E87613"/>
<path id="Shirt" fill-rule="evenodd" clip-rule="evenodd" d="M149.35 118.09C127.315 118.09 111.106 118.09 100.724 118.09C98.5023 118.09 98.921 114.624 99.2422 112.875C102.949 92.6891 117.42 70.9303 117.42 42.1969L131.446 39.8209C143.047 59.9774 147.059 84.7942 149.35 118.09Z" fill="#DDE3E9"/>
<path id="Coat-Front" fill-rule="evenodd" clip-rule="evenodd" d="M148.959 59.6338C150.996 59.0012 152.609 57.5259 153.798 55.2077C158.925 45.2146 157.073 39.7127 151.595 37.9042C146.116 36.0957 141.23 39.8209 132.502 39.8209C132.027 39.8209 131.592 39.8531 131.197 39.9174L126.806 40.188C114.209 86.3119 110.734 117.085 116.383 132.507H154.655C156.923 138.22 159.093 143.026 161.165 146.925H171.593C172.575 112.643 165.03 83.5459 148.959 59.6338Z" fill="#FF9B21"/>
<path id="Shade" fill-rule="evenodd" clip-rule="evenodd" d="M146.321 108.819C145.117 119.699 143.161 127.595 140.452 132.507H154.655C152.01 125.844 149.232 117.948 146.321 108.819Z" fill="black" fill-opacity="0.1"/>
</g>
</g>
</g>
</svg>
