<svg width="92" height="138" viewBox="0 0 92 138" fill="none" xmlns="http://www.w3.org/2000/svg">
<g id="humaaans/standing-5">
<g id="humaaan-10">
<g id="Head/Front/Short-1">
<g id="Head">
<path id="Vector" fill-rule="evenodd" clip-rule="evenodd" d="M44.5844 13.0733C42.9541 11.2187 41.8506 8.94578 42.035 6.39892C42.5663 -0.939284 53.1064 0.675027 55.1567 4.37872C57.2069 8.08242 56.9633 17.4771 54.3135 18.1391C53.2568 18.4031 51.0056 17.7564 48.7145 16.418L50.1526 26.2783H41.6611L44.5844 13.0733Z" fill="#B28B67"/>
</g>
<path id="Hair" fill-rule="evenodd" clip-rule="evenodd" d="M51.4117 4.9159C50.2594 5.5406 49.4393 6.71116 48.4521 8.2466C48.2117 8.15502 47.9499 8.10472 47.6759 8.10472C46.5035 8.10472 45.553 9.02585 45.553 10.1621C45.553 10.7389 45.798 11.2603 46.1926 11.6339C45.7014 12.3059 45.1509 13.0078 44.52 13.7321C42.166 12.3633 40.4151 8.37403 42.6628 4.52288C44.5966 -3.19126 55.5547 1.59682 57.6629 0.295802C58.1237 3.09513 56.6374 5.35229 51.4117 4.9159Z" fill="#191847"/>
</g>
<g id="Bottom/Standing/Baggy-Pants">
<path id="Leg" fill-rule="evenodd" clip-rule="evenodd" d="M41.3192 56.0471L58.6848 98.6444L70.332 134.657H74.9312L57.1252 56.0471L41.3192 56.0471Z" fill="#997659"/>
<path id="Leg_2" fill-rule="evenodd" clip-rule="evenodd" d="M37.8223 56.0471C37.6374 71.0161 34.9406 91.1694 34.5098 92.1025C34.2225 92.7246 24.3066 100.635 4.76196 115.834L7.92971 119.12C30.9906 106.088 43.0546 98.7035 44.1217 96.9655C45.7224 94.3584 50.9338 70.3677 55.1178 56.0471H37.8223Z" fill="#B28B67"/>
<g id="Accessories/Shoe/Flat-Sneaker">
<path id="shoe" fill-rule="evenodd" clip-rule="evenodd" d="M4.33823 114.738C3.27435 115.102 2.54149 115.448 2.13963 115.774C1.65088 116.172 1.00598 116.831 0.204955 117.751C0.680715 118.301 4.95645 123.239 13.0322 132.566C14.6788 131.883 15.1954 131.085 14.5819 130.17C13.9685 129.255 13.4664 128.489 13.0758 127.872L10.2813 118.41C10.2276 118.228 10.0317 118.123 9.84384 118.175C9.84062 118.176 9.83742 118.177 9.83424 118.178L8.34313 118.636C7.30861 118.169 6.58351 117.695 6.16785 117.215C5.83013 116.825 5.52629 116.154 5.25632 115.202C5.15272 114.837 4.76326 114.622 4.38643 114.723C4.37019 114.727 4.35411 114.732 4.33823 114.738Z" fill="#E4E4E4"/>
</g>
<g id="Accessories/Shoe/Flat-Sneaker_2">
<path id="shoe_2" fill-rule="evenodd" clip-rule="evenodd" d="M68.4488 132.994C68.0529 134.018 67.855 134.785 67.855 135.293C67.855 135.911 67.9613 136.814 68.1739 138C68.914 138 75.5659 138 88.1295 138C88.648 136.338 88.3487 135.441 87.2314 135.309C86.1141 135.177 85.186 135.057 84.447 134.95L75.1718 130.943C74.9933 130.866 74.7842 130.943 74.7046 131.116C74.7032 131.119 74.7019 131.122 74.7007 131.125L74.1045 132.527C73.0701 132.995 72.2297 133.228 71.583 133.228C71.0576 133.228 70.332 133.023 69.4063 132.612C69.051 132.454 68.631 132.605 68.4682 132.949C68.4611 132.964 68.4547 132.979 68.4488 132.994Z" fill="#E4E4E4"/>
</g>
<path id="Pant" fill-rule="evenodd" clip-rule="evenodd" d="M52.9949 130.948L74.862 128.648L58.6559 56.0471H39.0704L52.9949 130.948Z" fill="#69A1AC"/>
<path id="Pant_2" fill-rule="evenodd" clip-rule="evenodd" d="M9.2851 110.534L23.6286 126.988C38.7363 110.997 47.5442 100.562 50.0521 95.6849C52.5601 90.8075 54.8146 77.5949 56.8157 56.0471H34.7659C33.6728 75.0039 32.936 84.9234 32.5555 85.8055C32.1749 86.6877 24.4181 94.9305 9.2851 110.534Z" fill="#89C5CC"/>
</g>
<g id="Body/Turtle-Neck">
<path id="Skin" fill-rule="evenodd" clip-rule="evenodd" d="M73.2416 51.9021L83.6397 61.6697C86.6651 62.9124 89.1441 64.2846 91.0765 65.7862C91.5111 66.2909 91.9842 67.2581 89.9395 66.8253C87.8949 66.3925 85.724 66.0258 85.3398 66.6661C84.9555 67.3064 86.0878 68.2875 85.3776 69.1255C84.9041 69.6841 83.3118 67.9072 80.6006 63.7948L69.788 57.6563L73.2416 51.9021ZM22.3948 43.0621L30.4326 43.0912C24.3108 62.1894 21.0611 72.189 20.6836 73.0898C19.8343 75.1167 21.6316 78.2035 22.4003 79.8624C19.8969 80.9411 20.1636 76.9464 17.0057 78.3611C14.1232 79.6524 11.9306 81.9921 8.60036 80.0134C8.19093 79.7702 7.74225 78.8542 8.8263 78.1385C11.5271 76.3553 15.419 73.2344 15.9449 72.2071C16.662 70.8062 18.812 61.0912 22.3948 43.0621Z" fill="#B28B67"/>
<path id="Clothes-Back" fill-rule="evenodd" clip-rule="evenodd" d="M46.8872 21.1067L50.0612 20.5824C55.0613 37.6017 80.7515 49.2027 82.3286 55.5649C82.9069 57.8981 81.1631 59.0776 82.0639 59.7883L77.9382 62.6964C77.2396 61.9115 75.7487 63.3472 72.6353 62.3429C69.5218 61.3386 46.8872 41.2589 46.8872 21.1067Z" fill="#DB2721"/>
<path id="Clothes-Front" fill-rule="evenodd" clip-rule="evenodd" d="M52.2263 23.3693C51.8604 45.9015 65.3874 51.6491 62.3744 60.6881C59.8862 68.1524 36.0707 76.1765 31.9496 68.8597C30.2814 65.898 29.5245 62.316 29.4386 58.4216C28.3854 61.4135 27.5523 63.9892 26.9396 66.1487C25.8824 69.874 21.7842 70.4662 21.7842 71.9013L16.3849 70.4662C16.7511 68.5165 14.2057 67.5671 14.8882 63.2113C17.9461 43.6947 26.1622 29.5478 39.5365 20.7704L39.6779 18.823C39.7341 18.0679 40.4098 17.4986 41.1891 17.5498L51.1814 18.2226C51.9612 18.2739 52.5494 18.9291 52.4952 19.6848C52.4952 19.6848 52.4951 19.6856 52.4938 19.6859L52.2263 23.3693Z" fill="#FF4133"/>
</g>
</g>
</g>
</svg>
