<svg width="316" height="459" viewBox="0 0 316 459" fill="none" xmlns="http://www.w3.org/2000/svg">
<path d="M241.4 145.4C241.4 140.733 242.133 136.6 243.6 133C245.2 129.4 247.133 126.2 249.4 123.4C251.8 120.6 254.333 118 257 115.6C259.667 113.2 262.133 110.933 264.4 108.8C266.8 106.533 268.733 104.2 270.2 101.8C271.8 99.4 272.6 96.7333 272.6 93.8C272.6 89 270.6 85.1333 266.6 82.2C262.733 79.2667 257.533 77.8 251 77.8C244.733 77.8 239.133 79.1333 234.2 81.8C229.267 84.3333 225.2 87.9333 222 92.6L197.8 78.4C203.133 70.2667 210.533 63.8 220 59C229.467 54.0667 240.933 51.6 254.4 51.6C264.4 51.6 273.2 53.0667 280.8 56C288.4 58.8 294.333 62.9333 298.6 68.4C303 73.8667 305.2 80.6 305.2 88.6C305.2 93.8 304.4 98.4 302.8 102.4C301.2 106.4 299.133 109.867 296.6 112.8C294.067 115.733 291.333 118.467 288.4 121C285.6 123.533 282.933 126 280.4 128.4C277.867 130.8 275.733 133.333 274 136C272.4 138.667 271.6 141.8 271.6 145.4H241.4ZM256.6 195.6C251 195.6 246.4 193.8 242.8 190.2C239.2 186.6 237.4 182.333 237.4 177.4C237.4 172.333 239.2 168.133 242.8 164.8C246.4 161.333 251 159.6 256.6 159.6C262.333 159.6 266.933 161.333 270.4 164.8C274 168.133 275.8 172.333 275.8 177.4C275.8 182.333 274 186.6 270.4 190.2C266.933 193.8 262.333 195.6 256.6 195.6Z" fill="#1C1C1C"/>
<path fill-rule="evenodd" clip-rule="evenodd" d="M126.414 88.178C120.312 84.0078 115.381 78.2203 113.902 70.6603C109.638 48.8777 140.918 45.6063 149.671 54.8461C158.424 64.0859 165.125 91.6428 158.102 95.5764C155.301 97.1451 148.383 96.9642 140.806 94.7982L152.662 122.439L128.486 128.864L126.414 88.178Z" fill="#915B3C"/>
<path fill-rule="evenodd" clip-rule="evenodd" d="M153.262 59.0848C152.645 57.7496 151.64 56.3519 150.81 55.154C149.74 53.6099 148.403 52.3166 146.998 51.1364C144.352 48.9144 141.396 47.0584 138.314 45.6848C132.687 43.1758 126.225 42.583 120.633 44.8193C117.809 45.9483 115.274 47.8057 113.359 50.2847C111.628 52.5244 110.193 55.5261 107.419 56.4516C104.4 57.4584 100.86 55.5188 97.9489 54.5133C94.6671 53.3798 91.3453 52.8011 87.9574 53.1333C82.282 53.6902 77.6677 56.8686 75.1165 62.2871C72.4017 68.0531 71.3687 75.7256 75.6715 81.2662C76.4713 82.2962 77.3614 83.1071 78.4787 83.6784C79.5033 84.2022 80.9753 84.6581 81.63 85.7561C82.3257 86.9234 81.7054 88.8326 81.6019 90.0802C81.4536 91.8676 81.4327 93.708 82.0835 95.435C83.1524 98.2711 85.7479 100.56 88.2127 101.956C90.721 103.376 93.4623 103.844 96.2071 103.667C98.0398 103.548 99.8692 103.265 101.603 102.666C102.463 102.369 103.173 101.921 103.971 101.503C104.748 101.096 105.269 101.191 106.092 101.454C109.917 102.678 113.64 102.555 117.32 101.244C120.426 100.138 123.881 98.401 125.89 95.5536C128.12 92.3913 127.169 89.1004 125.538 85.7481C126.351 85.9101 128.395 85.601 126.829 84.5105C126.208 84.0786 125.259 84.088 124.568 83.9207C123.763 83.7261 122.917 83.4227 122.204 82.9457C119.324 81.0194 120.167 75.318 122.706 73.7406C126.478 71.3971 128.956 76.9179 132.293 77.6294C134.212 78.0386 135.661 76.3975 136.601 74.8649C137.861 72.8118 138.442 70.3813 138.854 67.9552C139.194 65.9573 139.47 63.9495 139.828 61.9562C139.995 61.0254 140.716 58.328 139.784 57.5734C142.571 56.2087 146.178 56.5507 149.143 57.4681C150.369 57.8475 151.364 58.3604 152.237 59.3731C152.424 59.5901 152.884 60.2606 153.22 60.2039C153.845 60.0984 153.417 59.4203 153.262 59.0848Z" fill="#191847"/>
<path fill-rule="evenodd" clip-rule="evenodd" d="M101.919 313.252C126.937 320.193 148.522 323.663 166.674 323.663C184.826 323.663 201.686 318.319 217.255 307.631C192.772 300.508 172.609 296.946 156.767 296.946C140.924 296.946 122.642 302.382 101.919 313.252Z" fill="#1F28CF"/>
<path fill-rule="evenodd" clip-rule="evenodd" d="M188.332 333.666C188.091 333.306 187.887 332.915 187.725 332.491C184.381 323.72 130.816 229.098 125.48 211.798H185.786C189.844 224.951 208.105 307.493 210.675 323.961C218.784 349.938 235.48 434.068 237.611 439.896C239.853 446.028 227.238 452.415 223.876 444.877C218.527 432.884 205.781 399.698 200.107 379.434C194.786 360.438 190.454 343.347 188.332 333.666Z" fill="#784931"/>
<path fill-rule="evenodd" clip-rule="evenodd" d="M138.993 345.219C114.504 351.357 24.9281 362.455 18.781 364.195C12.4576 365.986 6.91319 353.059 14.7293 350.259C27.166 345.803 61.4348 335.509 82.2121 331.307C98.9241 327.928 114.174 325.171 124.412 323.556C123.545 295.033 119.58 226.582 122.179 211.798H175.539C173.047 225.975 151.98 329.418 148.064 339.773C146.822 343.469 143.114 345.103 138.993 345.219Z" fill="#915B3C"/>
<path fill-rule="evenodd" clip-rule="evenodd" d="M15.2969 346.817C12.027 346.214 9.63066 346.045 8.10788 346.312C6.25581 346.635 3.60759 347.414 0.163206 348.647C0.54205 350.778 3.94678 369.929 10.3774 406.098C15.6194 406.721 18.1529 405.389 17.9778 402.103C17.8027 398.817 17.686 396.083 17.6275 393.899L24.8829 365.098C25.0226 364.543 24.6827 363.982 24.1239 363.843C24.1144 363.841 24.1048 363.839 24.0952 363.837L19.5918 362.854C17.6616 360.122 16.5309 357.824 16.2 355.963C15.931 354.45 16.1756 352.254 16.9337 349.373C17.2246 348.268 16.5568 347.138 15.4422 346.849C15.3942 346.837 15.3457 346.826 15.2969 346.817Z" fill="#E4E4E4"/>
<path fill-rule="evenodd" clip-rule="evenodd" d="M220.048 443.901C218.881 446.99 218.298 449.301 218.298 450.835C218.298 452.7 218.611 455.422 219.238 459C221.419 459 241.026 459 278.059 459C279.587 453.988 278.705 451.283 275.412 450.883C272.118 450.483 269.383 450.122 267.204 449.8L239.865 437.713C239.339 437.48 238.722 437.714 238.488 438.236C238.483 438.245 238.48 438.254 238.476 438.263L236.718 442.491C233.67 443.902 231.192 444.607 229.286 444.607C227.738 444.607 225.599 443.987 222.87 442.746C221.823 442.27 220.585 442.726 220.105 443.765C220.084 443.809 220.065 443.855 220.048 443.901Z" fill="#E4E4E4"/>
<path fill-rule="evenodd" clip-rule="evenodd" d="M122.351 211.798C145.865 205.126 168.114 205.126 189.097 211.798C196.397 244.832 214.135 257.943 217.255 308.589C181.796 326.062 137.995 296.127 101.493 313.167C91.0644 289.332 105.665 231.931 122.351 211.798Z" fill="#2B44FF"/>
<path fill-rule="evenodd" clip-rule="evenodd" d="M177.968 143.659L210.174 118.061C214.86 110.042 219.737 103.598 224.804 98.7294C226.433 97.694 229.429 96.7157 227.454 102.28C225.478 107.844 223.653 113.785 225.395 115.088C227.137 116.391 230.402 113.574 232.61 115.859C234.082 117.382 228.327 121.202 215.345 127.318L193.623 155.37L177.968 143.659ZM236.705 150.233L250.847 138.963C251.57 130.287 253.455 125.656 256.501 125.07C258.656 123.576 256.431 134.768 260.719 133.082C265.008 131.395 274.445 121.484 276.605 122.783C279.802 124.706 278.647 132.527 276.391 136.711C272.176 144.532 268.093 147.668 257.515 152.69C251.984 155.316 246.268 159.64 240.367 165.662L236.705 150.233Z" fill="#915B3C"/>
<path fill-rule="evenodd" clip-rule="evenodd" d="M159.839 142.381C172.303 140.067 188.488 134.54 204.266 120.248L213.987 134.46C203.877 148.665 188.407 161.588 173.266 163.803C161.333 165.549 152.733 152.366 159.839 142.381Z" fill="#2026A2"/>
<path fill-rule="evenodd" clip-rule="evenodd" d="M181.052 164.189C194.891 165.15 216.433 157.396 245.678 140.927C256.241 155.454 261.832 166.149 262.45 173.014C238.148 191.562 216.305 201.757 197.477 205.47C200.055 216.488 200.572 227.311 197.705 237.784C191.812 259.314 133.335 250.555 115.418 257.425C97.1385 222.019 116.908 202.874 112.667 178.916C108.023 152.679 122.083 108.585 125.208 108.039L153.705 103.055C158.839 122.815 170.679 143.511 181.052 164.189Z" fill="#1F28CF"/>
</svg>
