<svg width="30" height="30" viewBox="0 0 30 30" fill="none" xmlns="http://www.w3.org/2000/svg">
<path id="Vector" fill-rule="evenodd" clip-rule="evenodd" d="M15 0C6.71591 0 0 6.71591 0 15C0 23.2841 6.71591 30 15 30C23.2841 30 30 23.2841 30 15C30 6.71591 23.2841 0 15 0ZM13.4891 10.8205C13.8027 10.2027 14.0345 9.90954 14.2268 9.75682C14.3714 9.64227 14.5677 9.54545 15 9.54545C15.8523 9.54545 16.3636 10.1864 16.3636 10.8791C16.3636 11.2582 16.29 11.4464 16.0882 11.6864C15.8059 12.0218 15.2836 12.4295 14.25 13.1127L13.6364 13.5164V16.3636C13.6364 16.7253 13.78 17.0721 14.0358 17.3279C14.2915 17.5836 14.6383 17.7273 15 17.7273C15.3617 17.7273 15.7085 17.5836 15.9642 17.3279C16.22 17.0721 16.3636 16.7253 16.3636 16.3636V14.9768C17.1027 14.4668 17.7232 13.9786 18.1732 13.4441C18.8236 12.6723 19.0909 11.8486 19.0909 10.8791C19.0909 8.87455 17.5459 6.81818 15 6.81818C14.0673 6.81818 13.2423 7.05818 12.5345 7.61864C11.8745 8.14091 11.4245 8.85954 11.0564 9.58909C10.9708 9.74927 10.9181 9.92493 10.9014 10.1058C10.8846 10.2866 10.9041 10.4689 10.9588 10.6421C11.0135 10.8153 11.1022 10.9758 11.2198 11.1142C11.3373 11.2526 11.4813 11.3662 11.6434 11.4482C11.8054 11.5302 11.9822 11.579 12.1633 11.5918C12.3445 11.6046 12.5263 11.581 12.6983 11.5225C12.8702 11.4641 13.0287 11.3718 13.1645 11.2513C13.3003 11.1307 13.4107 10.9842 13.4891 10.8205ZM16.3636 21.1364C16.3636 20.7747 16.22 20.4279 15.9642 20.1721C15.7085 19.9164 15.3617 19.7727 15 19.7727C14.6383 19.7727 14.2915 19.9164 14.0358 20.1721C13.78 20.4279 13.6364 20.7747 13.6364 21.1364V21.8182C13.6364 22.1798 13.78 22.5267 14.0358 22.7824C14.2915 23.0382 14.6383 23.1818 15 23.1818C15.3617 23.1818 15.7085 23.0382 15.9642 22.7824C16.22 22.5267 16.3636 22.1798 16.3636 21.8182V21.1364Z" fill="#1C1C1C"/>
</svg>
