<svg width="84" height="59" viewBox="0 0 84 59" fill="none" xmlns="http://www.w3.org/2000/svg">
<path id="Vector" d="M21 59C15.2091 59 10.2607 57.0641 6.15491 53.1922C2.04909 49.3203 -0.00254309 44.588 2.36566e-06 38.9953C2.36566e-06 34.2016 1.49546 29.9302 4.48637 26.1813C7.47727 22.4323 11.3909 20.0354 16.2273 18.9906C17.8182 13.3365 21 8.75781 25.7727 5.25469C30.5455 1.75156 35.9545 0 42 0C49.4455 0 55.762 2.50504 60.9496 7.51513C66.1373 12.5252 68.7298 18.6243 68.7273 25.8125C73.1182 26.3042 76.762 28.1332 79.6587 31.2995C82.5555 34.4658 84.0025 38.1681 84 42.4062C84 47.0156 82.3289 50.9342 78.9867 54.162C75.6445 57.3898 71.5884 59.0025 66.8182 59H21Z" fill="black"/>
</svg>
