<svg width="25" height="30" viewBox="0 0 25 30" fill="none" xmlns="http://www.w3.org/2000/svg">
<g id="Group 1">
<path id="Vector" d="M24.7564 7.03152C24.7564 5.94499 24.11 4.95473 23.1198 4.51461L13.4923 0.237249C12.7771 -0.0790831 11.9656 -0.0790831 11.2642 0.237249L1.63668 4.51461C0.646418 4.95473 0 5.94499 0 7.03152V13.4957C0 21.1289 5.28138 28.267 12.3782 30C15.5415 29.2298 18.3335 27.3868 20.4653 24.8974L16.1742 20.6063C14.8521 21.4802 13.2684 21.8699 11.6917 21.7095C10.115 21.5491 8.64226 20.8483 7.52321 19.7261C6.23502 18.436 5.51148 16.6873 5.51148 14.8642C5.51148 13.041 6.23502 11.2924 7.52321 10.0023C8.81333 8.7141 10.562 7.99057 12.3851 7.99057C14.2082 7.99057 15.9569 8.7141 17.247 10.0023C18.3665 11.123 19.0653 12.5954 19.2257 14.1712C19.386 15.7471 18.998 17.3301 18.1272 18.6533L22.1158 22.6418C23.7799 19.9461 24.7564 16.7691 24.7564 13.4957V7.03152Z" fill="#1C1C1C"/>
<path id="Vector_2" d="M12.3783 18.9971C14.657 18.9971 16.5043 17.1498 16.5043 14.8711C16.5043 12.5923 14.657 10.745 12.3783 10.745C10.0995 10.745 8.2522 12.5923 8.2522 14.8711C8.2522 17.1498 10.0995 18.9971 12.3783 18.9971Z" fill="#1C1C1C"/>
</g>
</svg>
